HIERARCHY
ROOT Hips
{
	OFFSET -0.001795 -0.223333 0.028219
	CHANNELS 6 Xposition Yposition Zposition Zrotation Yrotation Xrotation 
	JOINT LeftUpLeg
	{
		OFFSET 0.069520 -0.091406 -0.006815
		CHANNELS 3 Zrotation Yrotation Xrotation
		JOINT LeftLeg
		{
			OFFSET 0.034277 -0.375199 -0.004496
			CHANNELS 3 Zrotation Yrotation Xrotation
			JOINT LeftFoot
			{
				OFFSET -0.013596 -0.397961 -0.043693
				CHANNELS 3 Zrotation Yrotation Xrotation
				JOINT LeftToe
				{
					OFFSET 0.026358 -0.055791 0.119288
					CHANNELS 3 Zrotation Yrotation Xrotation
					End Site
					{
						OFFSET 0.000000 0.000000 0.000000
					}
				}
			}
		}
	}
	JOINT RightUpLeg
	{
		OFFSET -0.067670 -0.090522 -0.004320
		CHANNELS 3 Zrotation Yrotation Xrotation
		JOINT RightLeg
		{
			OFFSET -0.038290 -0.382569 -0.008850
			CHANNELS 3 Zrotation Yrotation Xrotation
			JOINT RightFoot
			{
				OFFSET 0.015774 -0.398415 -0.042312
				CHANNELS 3 Zrotation Yrotation Xrotation
				JOINT RightToe
				{
					OFFSET -0.025372 -0.048144 0.123348
					CHANNELS 3 Zrotation Yrotation Xrotation
					End Site
					{
						OFFSET 0.000000 0.000000 0.000000
					}
				}
			}
		}
	}
	JOINT Spine
	{
		OFFSET -0.002533 0.108963 -0.026696
		CHANNELS 3 Zrotation Yrotation Xrotation
		JOINT Spine1
		{
			OFFSET 0.005487 0.135180 0.001092
			CHANNELS 3 Zrotation Yrotation Xrotation
			JOINT Spine2
			{
				OFFSET 0.001457 0.052922 0.025425
				CHANNELS 3 Zrotation Yrotation Xrotation
				JOINT Neck
				{
					OFFSET -0.002778 0.213870 -0.042857
					CHANNELS 3 Zrotation Yrotation Xrotation
					JOINT Head
					{
						OFFSET 0.005152 0.064970 0.051349
						CHANNELS 3 Zrotation Yrotation Xrotation
						End Site
						{
							OFFSET 0.000000 0.000000 0.000000
						}
					}
				}
				JOINT LeftShoulder
				{
					OFFSET 0.078845 0.121749 -0.034090
					CHANNELS 3 Zrotation Yrotation Xrotation
					JOINT LeftArm
					{
						OFFSET 0.090977 0.030469 -0.008868
						CHANNELS 3 Zrotation Yrotation Xrotation
						JOINT LeftForeArm
						{
							OFFSET 0.259612 -0.012772 -0.027456
							CHANNELS 3 Zrotation Yrotation Xrotation
							JOINT LeftHand
							{
								OFFSET 0.249234 0.008986 -0.001171
								CHANNELS 3 Zrotation Yrotation Xrotation
								End Site
								{
									OFFSET 0.000000 0.000000 0.000000
								}
							}
						}
					}
				}
				JOINT RightShoulder
				{
					OFFSET -0.081759 0.118833 -0.038615
					CHANNELS 3 Zrotation Yrotation Xrotation
					JOINT RightArm
					{
						OFFSET -0.096012 0.032551 -0.009143
						CHANNELS 3 Zrotation Yrotation Xrotation
						JOINT RightForeArm
						{
							OFFSET -0.253742 -0.013329 -0.021401
							CHANNELS 3 Zrotation Yrotation Xrotation
							JOINT RightHand
							{
								OFFSET -0.255298 0.007772 -0.005559
								CHANNELS 3 Zrotation Yrotation Xrotation
								End Site
								{
									OFFSET 0.000000 0.000000 0.000000
								}
							}
						}
					}
				}
			}
		}
	}
}
MOTION
Frames: 11
Frame Time: 0.050000
0.000000 0.918323 0.000000 -2.898793 -4.115197 7.616532 12.787227 0.857745 -30.996031 -5.296050 0.772738 8.166215 4.878631 12.736842 17.616590 0.000000 0.000000 0.000000 -2.139162 1.299986 -14.077061 5.596144 -0.546954 16.129227 -5.683602 -12.398071 -7.092011 0.000000 0.000000 0.000000 0.516706 -1.259700 37.652049 -8.063983 2.505381 -21.849721 -3.351677 7.708744 27.338674 12.322160 -5.365914 -22.359047 0.000000 0.000000 0.000000 -19.443762 -22.573601 9.863462 -42.006532 -23.519505 1.134443 3.889947 -28.820622 0.125520 0.000000 0.000000 0.000000 28.115474 9.803362 7.119396 50.083959 33.787323 6.341895 -4.480556 38.338782 1.122142 0.000000 0.000000 0.000000 
0.013717 0.916381 0.019544 -3.448352 -5.204522 8.643390 12.552001 0.902573 -30.720792 -5.291261 0.784269 7.675796 4.889311 12.766213 19.289419 0.000000 0.000000 0.000000 -3.154466 1.287460 -14.490911 6.702917 -0.752406 17.233852 -5.239284 -10.878995 -7.358858 0.000000 0.000000 0.000000 -0.471948 -0.732851 37.286269 -7.551749 2.361637 -21.515429 -4.082994 7.669140 26.786453 11.173275 -4.608556 -22.552454 0.000000 0.000000 0.000000 -18.990147 -20.496254 8.836796 -41.589950 -23.588155 1.103029 0.967470 -28.772607 0.885683 0.000000 0.000000 0.000000 29.092222 8.337132 6.058317 51.646730 33.294095 6.509391 -1.201795 39.064915 2.325072 0.000000 0.000000 0.000000 
0.026856 0.916776 0.038166 -3.381852 -5.205705 8.670972 11.934246 0.709826 -30.358065 -5.192942 0.824118 10.018533 5.281127 13.211994 18.118126 0.000000 0.000000 0.000000 -3.909308 1.159102 -13.525914 6.680790 -0.750591 17.498785 -5.237325 -11.392731 -5.849547 0.000000 0.000000 0.000000 -0.997804 -0.540146 36.940917 -7.527737 2.355978 -21.221314 -4.381143 8.001800 26.780622 11.442654 -5.468358 -19.061679 0.000000 0.000000 0.000000 -19.794020 -21.096781 9.143007 -40.081101 -24.857615 1.397008 1.048182 -25.788292 0.745812 0.000000 0.000000 0.000000 29.646616 8.456059 6.386133 49.758564 33.471943 5.999840 0.333733 38.818368 2.805992 0.000000 0.000000 0.000000 
0.037818 0.920927 0.055067 -3.782497 -6.967681 9.355138 11.758872 0.821924 -29.662880 -5.467166 0.947708 10.481645 5.242494 12.788086 16.933155 0.000000 0.000000 0.000000 -3.559280 1.253007 -13.998431 5.527997 -0.385214 17.011390 -5.132904 -11.297073 -4.707802 0.000000 0.000000 0.000000 -2.775202 0.398601 37.690120 -7.660343 2.334508 -21.860148 -4.403212 8.297194 27.140832 11.877009 -6.218572 -17.312152 0.000000 0.000000 0.000000 -18.746730 -21.582484 9.489396 -40.358381 -25.436507 1.501418 2.379853 -25.954495 0.471466 0.000000 0.000000 0.000000 31.889914 9.055705 6.816918 47.858007 33.051584 5.300502 1.556567 40.239044 3.301169 0.000000 0.000000 0.000000 
0.046629 0.922814 0.070500 -4.343660 -7.294247 10.166617 11.327819 0.759483 -29.951269 -4.914725 0.866092 11.438554 5.803163 13.453406 15.559493 0.000000 0.000000 0.000000 -3.517534 1.247466 -13.745532 5.197576 -0.322150 15.230694 -5.369734 -12.539814 -2.761843 0.000000 0.000000 0.000000 -3.444819 0.711661 37.683003 -7.351229 2.247186 -21.848873 -4.436395 8.511967 27.545116 12.172020 -6.149362 -18.488241 0.000000 0.000000 0.000000 -18.311355 -21.612732 9.475187 -40.193319 -27.256284 2.020191 4.900494 -25.610270 -0.082167 0.000000 0.000000 0.000000 31.018206 8.591001 6.462903 48.496356 33.601036 5.647931 3.867203 40.941883 4.274886 0.000000 0.000000 0.000000 
0.053630 0.926385 0.084655 -4.946674 -8.729335 11.191555 11.665215 1.012159 -30.097440 -5.339583 1.022350 11.743573 6.002265 13.494371 14.479351 0.000000 0.000000 0.000000 -2.975714 1.334959 -14.078173 4.335887 -0.104864 14.305298 -4.930624 -11.654976 -1.810451 0.000000 0.000000 0.000000 -4.293213 1.282886 37.989868 -7.698597 2.241833 -23.249294 -4.394179 8.828825 28.273812 13.385737 -7.326286 -17.412156 0.000000 0.000000 0.000000 -17.645360 -21.763080 9.649291 -39.792239 -27.933938 2.037680 6.895943 -26.265483 -0.508538 0.000000 0.000000 0.000000 33.209353 8.608970 6.512525 45.524101 31.916235 4.170427 7.057698 43.369794 5.753567 0.000000 0.000000 0.000000 
0.059034 0.928373 0.098403 -5.456720 -9.235098 12.278752 11.519419 1.058951 -30.637414 -5.211977 1.021840 12.054794 6.170367 13.648210 13.811363 0.000000 0.000000 0.000000 -2.927075 1.415637 -14.728573 4.224747 -0.089246 13.392819 -4.782927 -11.847177 -0.239816 0.000000 0.000000 0.000000 -4.790884 1.562475 37.759534 -7.270085 2.123691 -23.154631 -4.441658 8.556393 27.788434 12.849167 -7.006520 -17.271180 0.000000 0.000000 0.000000 -18.421091 -21.320372 9.652903 -38.907007 -28.554050 2.138807 7.963938 -26.708796 -0.734559 0.000000 0.000000 0.000000 33.881080 8.778156 6.459764 45.345004 30.934685 3.820222 8.820593 44.790014 6.690783 0.000000 0.000000 0.000000 
0.063083 0.930075 0.112112 -6.269905 -10.367404 12.945548 11.879733 1.311768 -30.698461 -5.312030 1.120339 12.773900 6.582164 14.102526 12.655929 0.000000 0.000000 0.000000 -2.663062 1.537985 -15.544857 4.331655 -0.055819 13.801356 -4.630120 -11.786173 0.606677 0.000000 0.000000 0.000000 -5.236795 1.872236 37.265706 -7.229965 2.080068 -23.227851 -3.929189 8.398142 27.431319 13.444650 -7.694694 -16.564195 0.000000 0.000000 0.000000 -18.996796 -20.653286 9.586274 -38.386141 -28.413591 1.980833 8.093499 -27.685210 -0.754187 0.000000 0.000000 0.000000 35.762742 8.908040 6.287635 42.865961 29.105296 2.779976 10.997416 45.301085 7.502370 0.000000 0.000000 0.000000 
0.065397 0.931372 0.125993 -6.530746 -11.020827 13.000278 11.954122 1.377398 -30.245605 -5.422202 1.211876 13.513039 6.855220 14.444725 11.939844 0.000000 0.000000 0.000000 -3.163036 1.600667 -16.318681 4.888275 -0.121934 14.441875 -4.654148 -12.218753 1.603186 0.000000 0.000000 0.000000 -5.381059 2.040118 37.481347 -7.156904 2.030183 -23.860114 -3.688075 7.627234 27.425250 13.767530 -8.135590 -16.295532 0.000000 0.000000 0.000000 -20.062558 -20.454107 9.945305 -37.108649 -27.758748 1.566313 7.991333 -28.068937 -0.709068 0.000000 0.000000 0.000000 36.560710 8.842020 5.691114 42.334251 27.370899 2.241847 13.331328 45.894435 8.472676 0.000000 0.000000 0.000000 
0.065746 0.932129 0.139876 -7.208659 -12.059353 13.187817 12.808159 1.677336 -29.347772 -5.694210 1.348594 13.821037 7.668254 15.641150 10.995147 0.000000 0.000000 0.000000 -3.016277 1.745915 -17.345380 5.489800 -0.138746 16.320650 -5.428826 -14.135694 1.980434 0.000000 0.000000 0.000000 -5.232522 2.051215 36.734072 -7.380217 2.059475 -23.792523 -3.114581 7.141845 27.457470 13.781764 -8.280749 -16.384117 0.000000 0.000000 0.000000 -20.353477 -20.348238 10.275082 -36.357545 -27.872286 1.425043 8.098649 -28.110229 -0.703797 0.000000 0.000000 0.000000 37.281873 8.632038 4.926143 41.835191 26.239633 1.948585 15.110437 45.146170 8.897178 0.000000 0.000000 0.000000 
0.063660 0.933390 0.153753 -7.595653 -13.079923 13.033473 13.418510 1.841077 -27.994288 -5.910172 1.491313 14.363099 8.244640 16.509240 10.277476 0.000000 0.000000 0.000000 -3.398577 1.943669 -19.142540 6.570049 -0.232788 19.182804 -5.797796 -15.156182 2.403913 0.000000 0.000000 0.000000 -4.782972 1.941124 36.051187 -7.024877 1.965915 -23.718808 -3.308764 6.574138 27.213021 14.665303 -8.881666 -17.051026 0.000000 0.000000 0.000000 -20.699843 -20.160047 10.577553 -35.231506 -26.935148 0.979075 7.609133 -28.443610 -0.574260 0.000000 0.000000 0.000000 37.617261 8.466326 4.084603 41.628838 25.001022 1.747058 16.940769 44.352235 9.281048 0.000000 0.000000 0.000000 
